<?xml version="1.0" encoding="utf-8"?>
<!-- Svg Vector Icons : http://www.onlinewebfonts.com/icon -->
<!DOCTYPE svg PUBLIC "-//W3C//DTD SVG 1.1//EN" "http://www.w3.org/Graphics/SVG/1.1/DTD/svg11.dtd">
<svg version="1.1" xmlns="http://www.w3.org/2000/svg" xmlns:xlink="http://www.w3.org/1999/xlink" x="0px" y="0px" viewBox="0 0 256 256" enable-background="new 0 0 256 256" xml:space="preserve">
<metadata> Svg Vector Icons : http://www.onlinewebfonts.com/icon </metadata>
<g><g><path fill="#000000" d="M128,10C62.8,10,10,62.8,10,128c0,65.2,52.8,118,118,118c65.2,0,118-52.8,118-118C246,62.8,193.2,10,128,10z M90.5,107.4H77V89.6H59.6v67H77v-19h13.4V160c0,5.5-2.7,8.2-8.2,8.2H54.1c-5.3,0-8-2.7-8-8.2V86.4c0-5.5,2.7-8.3,8-8.3h28.1c5.5,0,8.2,2.8,8.2,8.3V107.4L90.5,107.4z M133.2,168.2l-14.9-41.9v-8.1h13.2V89.6h-17v78.6h-13.5V78.1h35.8c5.4,0,8.1,2.8,8.1,8.3v32.8c0,3.8-1.3,6.3-3.9,7.4c-1.4,0.6-4.3,0.9-8.8,0.9l14.9,40.8L133.2,168.2L133.2,168.2z M209.9,168.2h-13v-44.5c0-2.3,0.3-5.6,0.8-9.8l-11.6,46h-6.9l-11.7-46c0.5,4.3,0.8,7.5,0.8,9.8v44.5h-13V78.1h12.7l14.2,49.8c0.1,0.5,0.3,1.9,0.3,4.1c0-1,0.1-2.3,0.3-4.1l14.2-49.8H210L209.9,168.2L209.9,168.2z"/></g></g>
</svg>